<?xml version="1.0" encoding="utf-8"?>
<!DOCTYPE svg PUBLIC "-//W3C//DTD SVG 1.1//EN" "http://www.w3.org/Graphics/SVG/1.1/DTD/svg11.dtd">
<svg version="1.1" id="Layer_1" xmlns="http://www.w3.org/2000/svg" xmlns:xlink="http://www.w3.org/1999/xlink" x="0px" y="0px"
	 viewBox="555.5346 -2.4019 1422.4655 1587.9749" enable-background="new 555.5346 -2.4019 1422.4655 1587.9749"
	 xml:space="preserve">
<g>
	<path d="M1459.1752,1360.748c65.076-67.5869,132.0491-133.4861,176.1497-218.3746
		c-102.9917,46.952-209.4164,68.7246-322.0883,50.588c22.5891-4.2777,45.2507-8.2079,67.7554-12.891
		c128.3314-26.7074,242.5533-81.6666,339.9314-170.2425c10.3356-9.4013,20.8719-18.584,31.423-27.7439
		c2.4741-2.1481,5.308-3.9186,8.1144-5.6378c5.3937-3.3035,9.6302-1.6677,11.2711,4.1137
		c1.8539,6.5313,3.6168,13.3372,3.7731,20.0611c0.8663,37.2819-10.5764,71.6309-26.6844,104.5665
		c-29.587,60.4938-73.6431,109.2362-125.0077,151.8508c-49.7484,41.2729-104.6459,74.4705-162.4852,103.0024
		C1460.6572,1360.3718,1459.8945,1360.5168,1459.1752,1360.748z"/>
	<path d="M1729.9319,648.6126c19.6626-18.8879,38.9674-36.1965,56.8683-54.8517
		c63.5482-66.2245,108.9674-142.7985,129.4423-232.9467c16.6432-73.2763,15.8024-146.3905-6.3184-218.4701
		c-5.8335-19.0086-14.7645-37.2457-23.8883-55.0081c-7.2069-14.0312-14.4797-16.8809-29.6943-12.408
		c-12.7963,3.7617-25.4611,8.9673-37.1084,15.463c-44.8435,25.0099-84.7902,56.9992-123.1481,90.7501
		c-46.9248,41.2896-92.7024,83.8864-138.7889,126.1223c-16.2936,14.9323-34.973,24.0795-56.9889,26.5428
		c-11.4446,1.2806-20.2975-3.7414-27.9574-11.2101c-4.879-4.7563-3.8354-10.5224,0.626-14.9457
		c4.4728-4.4347,9.2748-9.006,14.7943-11.8392c31.4764-16.1577,56.4076-40.253,81.4506-64.5772
		c55.3068-53.7198,113.1428-104.5283,177.5516-147.305c29.2794-19.4459,59.6995-36.879,93.4193-47.6016
		c9.1586-2.9126,18.8408-4.1398,28.1239-6.7118c7.1064-1.9689,12.0553,0.7398,17.0035,5.348
		c21.4307,19.9575,34.6031,44.9763,44.0974,72.1241c20.2777,57.9849,23.4064,117.9329,18.3667,178.4376
		c-6.8097,81.7606-29.8933,158.5831-73.4332,228.6162c-34.4889,55.4745-79.5935,99.9957-137.4099,131.1028
		C1734.9856,646.2961,1732.938,647.1744,1729.9319,648.6126z"/>
	<path d="M1607.7015,676.3273c-70.6388-56.1723-147.3247-93.2941-241.752-83.4987c1.219,2.0572,1.4286,2.8447,1.9397,3.2114
		c41.2914,29.6467,59.7427,71.2858,62.7755,120.7c2.2446,36.5746-5.3441,71.7606-16.7272,106.2684
		c-0.2961,0.8967-0.999,1.6594-2.6234,4.2714c0-4.1208-0.1366-6.4271,0.0197-8.7137
		c7.6587-112.0034-54.4939-195.1971-148.0574-237.8638c-27.6893-12.6267-56.6414-20.9597-86.8467-24.8631
		c-0.9667-0.1246-1.9066-0.4525-3.4186-2.204c2.816-1.0658,5.6003-2.2237,8.4519-3.1827
		c26.9673-9.0734,54.8802-12.7671,83.1365-14.1024c52.2422-2.469,104.0923,1.6867,155.6807,9.8209
		c1.7114,0.2701,3.4585,0.3133,7.1262,0.6292c-29.9531-38.5155-69.2197-62.5461-108.5715-87.3183
		c13.4738,2.9577,26.9419,5.9422,40.4227,8.8688c83.5585,18.1399,145.9412,67.664,196.7897,133.7263
		c16.8688,21.9162,32.0477,45.1339,47.9504,67.7904C1605.4181,671.8907,1606.4756,674.1685,1607.7015,676.3273z"/>
	<path d="M1545.8407,1217.079c-17.7097,12.7201-35.1173,25.8882-53.1886,38.0719c-43.1879,29.1173-88.7761,53.5024-139.4187,67.1479
		c-53.5438,14.427-106.6243,15.3721-157.8802-8.7938c-45.104-21.2654-78.3331-54.7811-98.7914-100.5061
		c-1.9498-4.3585-3.3696-9.0773-4.2238-13.7758c-1.4597-8.0292,1.3201-11.1661,9.4891-9.9027
		c6.1824,0.9564,12.4785,2.7734,18.0934,5.5056c17.3518,8.4423,34.2917,17.728,51.5908,26.2834
		c36.6884,18.1455,76.1616,26.5345,116.339,31.7783c86.0262,11.2272,168.4866-3.8132,248.6379-34.8975
		c2.7677-1.0735,5.585-2.0184,8.3794-3.0232C1545.1912,1215.6707,1545.5159,1216.3748,1545.8407,1217.079z"/>
	<path d="M1437.4534,916.4041c-13.3518,6.3909-26.4741,13.5049-40.2162,19.095c-43.7585,17.7992-89.7561,25.8551-136.6135,28.9628
		c-76.9058,5.1007-152.7439-3.4617-227.9141-19.355c-0.9609-0.2034-1.8914-0.5504-2.8726-1.6911
		c54.0497-1.6949,107.6735-7.1293,160.8843-16.213c53.1008-9.0645,105.4982-21.1422,158.6003-38.5117
		c-5.3295-9.2317-9.5742-18.08-15.1528-25.988c-23.1332-32.7932-54.6852-55.5101-89.8712-73.7014
		c-29.4941-15.2488-60.7207-25.8228-92.7177-34.3179c-2.3807-0.6324-4.708-1.4642-6.9159-2.8796
		c51.5242-7.7852,100.9675-0.8262,148.2583,20.9228C1365.8334,806.259,1418.1023,874.0773,1437.4534,916.4041z"/>
	<path d="M1436.7073,620.047c3.7382,3.5004,5.8933,5.4821,8.0089,7.5049c47.041,44.973,97.2465,85.7459,155.6412,115.3138
		c33.1814,16.8014,67.7052,29.463,105.812,26.9514c10.2727-0.6768,20.4253-3.1878,31.7458-5.0391
		c-2.2987,2.124-4.0789,3.9886-6.0756,5.5812c-31.7084,25.2985-68.1266,31.1631-107.2076,25.8151
		c-30.0599-4.1132-58.0986-14.3699-84.944-28.1964c-1.7668-0.9101-3.5514-1.7839-6.4158-3.2202
		c15.4263,94.2703-0.7988,177.6501-77.7821,243.4686c0.2638-2.7023,0.1132-3.6142,0.4512-4.2784
		c19.1167-37.5515,25.627-78.0021,26.839-119.4988c1.7941-61.4428-7.5292-121.645-22.3082-181.0394
		c-6.4969-26.11-14.6597-51.8056-22.0687-77.6888C1438.0698,624.5567,1437.7108,623.4006,1436.7073,620.047z"/>
	<path d="M1430.7003,392.5295c63.111,41.001,99.3011,102.6281,131.8617,167.1183c-0.7289,0.7118-1.4579,1.4242-2.1868,2.136
		c-1.5227-2.096-2.8352-4.3909-4.5988-6.2599c-52.6757-55.819-109.5414-106.7063-174.8914-147.4671
		c-40.7164-25.3957-83.2915-46.6839-130.6123-57.036c-1.1261-0.2466-2.1608-0.9107-5.0607-2.1748
		c60.2053-24.5205,120.4266-32.7112,182.6969-19.6759c75.9327,15.8958,132.0619,60.8441,176.2418,123.0724
		C1550.7285,419.2681,1494.22,395.5927,1430.7003,392.5295z"/>
	<path d="M686.5946,1218.2211c24.2613-7.1395,48.5378-13.5889,72.3211-21.5183c16.938-5.6467,32.4964-14.4799,45.0569-27.6582
		c15.756-16.5308,18.4608-36.6985,7.7089-56.7666c-1.1592-2.1639-2.6609-4.1436-3.9479-6.1239
		c-1.0518,0.4283-1.7432,0.4875-1.8888,0.8014c-12.6425,27.174-35.6238,40.1464-63.6519,45.54
		c-33.4116,6.4296-66.1266,1.25-98.7151-8.1335c9.9911-2.0216,20.0299-3.8341,29.9645-6.1055
		c27.4065-6.265,53.8031-15.1643,77.1638-31.3486c24.9641-17.2946,42.0922-39.5387,43.9575-71.1656
		c0.0401-0.6782,0.5123-1.3308,0.7709-1.9657c0.6381,0.0375,1.2971-0.1309,1.5933,0.1233
		c25.953,22.2854,48.3611,47.2628,59.2146,80.5658c10.8694,33.3512-0.1017,60.3076-25.5145,82.4539
		c-6.8281,5.9504-14.5097,10.9222-23.4153,17.5444c33.6371,3.2266,64.1724-3.093,94.004-14.1602
		c29.9473-11.1096,57.2178-27.1117,84.1304-45.5248c-1.5297,4.3108-2.7435,8.7659-4.6381,12.9102
		c-20.3127,44.4354-55.2095,70.3999-102.515,80.4215c-36.8174,7.7998-73.5076,4.823-109.5344-3.9517
		c-26.0801-6.3522-51.472-15.5387-77.1492-23.5292C689.6674,1220.0564,687.9998,1218.922,686.5946,1218.2211z"/>
	<path d="M1022.927,1176.2279c9.3873,37.77,22.3718,72.67,39.7853,105.8617c25.1548,47.9468,57.1238,90.2239,103.5426,119.5675
		c15.5431,9.8252,32.6356,17.1986,48.3319,25.3359c-21.2311,11.2755-93.0387-6.0101-128.536-31.5494
		c-38.2366-27.5095-64.2785-64.3751-82.8645-107.5319c-65.146,53.6461-140.7935,64.8269-221.1126,57.9727
		C886.0917,1323.8347,963.2192,1263.7045,1022.927,1176.2279z"/>
	<path d="M1840.4773,602.5598c3.149,14.4144,6.7418,26.5873,8.3667,39.0182c8.2124,62.8193-7.8036,120.4788-38.8815,174.559
		c-32.6686,56.8485-77.8673,102.562-128.7654,143.0578c-9.8615,7.8463-20.0248,15.3123-30.5981,22.4348
		c60.881-81.9353,118.2849-165.5198,143.9545-266.5566c-47.7319,28.8828-98.2518,26.7989-149.931,16.2899
		C1722.1537,708.5225,1785.4268,664.087,1840.4773,602.5598z"/>
	<path d="M1099.6058,554.0958c12.0668,15.8907,26.2588,28.0433,41.5375,38.9763c42.1234,30.143,89.3621,48.9858,139.1875,61.6036
		c20.6406,5.2272,41.7382,8.6476,62.6204,12.9272c1.4032,0.2879,2.741,0.8948,4.1772,2.8853
		c-14.1462,2.6851-28.2345,5.7306-42.4487,7.9866c-40.4329,6.4169-80.9656,7.7439-121.2573-0.6819
		c-69.1295-14.457-122.0149-51.179-154.0505-115.2058c-7.7184-15.4274-9.2495-13.2616,6.7188-24.5568
		c20.4493-14.4653,43.9791-21.9861,68.0885-27.5336c41.3607-9.5176,83.3977-11.5392,125.9043-9.8665
		C1185.4733,515.0801,1140.1996,527.8491,1099.6058,554.0958z"/>
	<path d="M1172.7615,1064.323c103.0685-5.3937,198.0925-28.7836,275.1725-102.4362c-1.1453,3.8271-2.0286,7.7572-3.4763,11.4662
		c-14.7468,37.7948-41.7155,64.8542-76.9808,83.1517c-19.2316,9.9784-40.3331,16.3558-60.6,24.335
		c-1.6315,0.6425-3.3328,1.109-7.2819,2.4061c60.2473,31.9104,120.5321,51.1764,187.6876,32.7659
		c0.3031,0.7925,0.6063,1.5844,0.9094,2.3768c-15.6588,8.1442-30.8479,17.4-47.0588,24.2345
		c-60.3744,25.4535-119.6138,19.8519-177.4202-8.7976c-32.1716-15.9447-60.382-37.4103-85.4091-63.1002
		C1176.6248,1069.0024,1175.144,1067.0875,1172.7615,1064.323z"/>
	<path d="M1307.6267,1434.9294c11.4821,26.7334,25.9454,48.9591,43.2177,71.0538c-18.2721-2.4512-32.9698-9.4656-46.4424-19.2418
		c-28.4175-20.6216-48.2969-48.4342-65.1167-78.6306c-6.9901-12.5491-12.9705-25.6613-20.401-40.4971
		c131.3303,44.2709,262.0582,64.262,396.701,29.6638c-10.0438,7.9282-62.7137,27.7839-97.4294,36.5765
		c-34.3478,8.6991-69.1365,14.3152-104.6599,14.9292C1378.2953,1449.3909,1343.5587,1446.4064,1307.6267,1434.9294z"/>
	<path d="M1754.474,940.38c40.8911-40.0783,72.5575-87.277,107.1772-134.8271c16.7786,61.5159,15.3683,120.8818-0.8738,179.9394
		c-18.7405,68.1418-56.014,125.1632-107.0323,173.6769c44.9871-66.4025,69.0551-139.6686,73.0481-219.569
		c0.5388-10.783,0.0743-21.6155,0.0743-33.7402C1802.6177,919.6612,1780.4678,934.0546,1754.474,940.38z"/>
	<path d="M1588.7445,1367.0703c62.48-31.4097,121.1753-67.6671,166.175-124.0873c-12.9838-0.6991-24.5637-0.8452-36.0281-2.0763
		c-11.212-1.2037-22.3052-3.5139-33.4503-6.2905c76.8695-24.504,142.1578-67.2732,201.105-121.0623
		c-23.969,65.2528-63.1511,119.6195-116.6688,163.6661C1716.5166,1321.137,1655.9591,1350.7932,1588.7445,1367.0703z"/>
	<path d="M1621.8547,703.9677c3.0544-6.0298,5.3766-10.1595,7.2914-14.4697c10.6013-23.8691,10.2117-48.5162,3.979-73.1791
		c-11.7788-46.6064-37.4694-85.7688-67.0112-122.7565c-2.7881-3.4909-5.6434-6.9291-7.6854-11.2336
		c9.2018,5.639,18.2333,11.5812,27.6365,16.8612c30.2963,17.0118,61.5872,31.362,96.8512,34.4907
		c28.3312,2.5135,53.4689-4.04,73.3169-25.7141c0.6115-0.6673,1.395-1.177,3.4248-2.8605
		c-1.9796,23.6276-12.2186,40.3998-30.6082,52.1978c-17.8882,11.4764-38.1354,14.7315-59.7422,15.7096
		c11.8761,31.7713,14.3877,62.8931-3.8678,92.698C1655.3165,682.2377,1640.8684,694.2098,1621.8547,703.9677z"/>
	<path d="M1603.8884,835.265c31.8616,31.3772,53.7999,89.549,11.6995,137.7677c-19.7986,22.6763-44.7329,38.0903-71.5287,50.8104
		c-36.8713,17.5024-75.7135,29.2527-115.2871,38.7742c-1.4521,0.3495-2.9368,0.5643-4.9825-0.3121
		c6.5625-3.8951,13.1434-7.7598,19.6848-11.6898c44.0535-26.4672,84.6631-57.0964,116.583-97.945
		c21.7388-27.8195,37.8539-58.3528,42.37-93.9684C1603.38,851.1818,1603.3978,843.5434,1603.8884,835.265z"/>
	<path d="M1773.0969,315.7229c-69.7301-3.1096-138.046,2.6025-206.1918,27.3696c16.3922-40.0407,39.8235-72.1012,72.6135-97.045
		c41.9282-31.8946,89.746-44.4189,142.0175-41.873c-47.6595,19.9772-97.699,35.885-130.6161,80.0669
		c21.8768-6.5911,43.5559-7.8551,65.4364-1.8634C1738.1232,288.3387,1756.7448,299.7845,1773.0969,315.7229z"/>
	<path d="M1030.2114,692.1901c-14.1182-19.4745-26.1964-37.9003-40.0591-54.8682c-24.8975-30.4742-53.8412-56.6382-88.0981-76.4984
		c-10.0019-5.7986-20.5307-9.3404-32.3083-10.2225c-8.694-0.6514-17.5958-2.788-25.6943-6.0356
		c-9.7757-3.9199-10.8847-12.6635-3.2711-20.0782c10.9374-10.6527,24.968-14.5358,39.5704-15.6664
		c44.0458-3.4102,77.5305,15.7852,103.4142,50.016c17.7433,23.4643,28.478,50.3141,35.4218,78.6224
		C1023.4971,655.0302,1026.3894,672.9489,1030.2114,692.1901z"/>
	<path d="M1296.7858,450.5735c-22.6418,4.2542-44.7131,8.401-66.7843,12.5479c-0.1469-0.5199-0.2937-1.0391-0.441-1.5589
		c13.2775-4.4157,26.5548-8.8313,39.8317-13.2476c0.8402-1.1777,1.6803-2.3559,2.5205-3.5342
		c-2.7163-1.3848-5.8246-2.3102-8.082-4.2332c-10.4379-8.8929-20.8688-17.8176-30.8796-27.1827
		c-23.9467-22.403-52.0007-27.7007-83.432-21.7102c-40.5441,7.728-65.8177,33.9283-73.9155,77.8082
		c-1.0544,5.7141-1.8959,11.4674-2.9724,18.035c-44.3813-5.9689-88.4228-11.892-132.4636-17.8151
		c0.0381-0.5828,0.0756-1.1656,0.1138-1.7483c25.8297-3.6409,51.6614-7.2679,77.4886-10.9298
		c9.5552-1.355,19.0702-3.0613,28.6603-4.0706c4.5988-0.4843,6.2727-2.5294,7.4618-6.7932
		c14.9966-53.7815,67.5508-89.8254,122.6415-83.8889c18.4678,1.9898,35.5209,8.4665,50.6814,19.4236
		c25.728,18.5949,47.1738,41.6353,67.7764,65.5368C1295.6082,447.929,1295.9139,448.9128,1296.7858,450.5735z"/>
	<path d="M1239.0889,1554.2058c-20.1411-3.3708-40.4526-5.9524-60.3859-10.2797c-39.5591-8.5872-76.8658-22.9209-109.6373-47.3639
		c-19.1484-14.2828-36.0751-30.8593-45.7103-53.0951c-3.709-8.5598-5.7255-18.4874-5.8036-27.8145
		c-0.0845-10.1094,7.3785-14.5072,16.9812-11.0321c6.5645,2.3755,13.1484,5.8729,18.4456,10.373
		c25.5387,21.6963,50.5397,44.0236,75.9283,65.8984c33.0189,28.4474,67.4556,54.7627,108.9237,70.1272
		c0.6304,0.2339,1.0962,0.9114,1.6389,1.3817C1239.343,1553.0027,1239.2159,1553.6045,1239.0889,1554.2058z"/>
	<path d="M771.3975,402.3103c15.3721-9.3619,31.1351-18.1481,46.0242-28.2238c21.4338-14.5052,42.3839-29.7433,63.2419-45.0747
		c11.0817-8.1456,18.9057-19.0677,23.4974-32.1418c2.7518-7.8348,7.7083-13.4153,15.4407-16.8516
		c15.0823-6.7023,29.8164-14.2231,45.0735-20.4818c6.544-2.6845,8.8376-6.7283,10.5745-13.1071
		c8.6013-31.5813,17.2908-63.1574,27.0417-94.3949c3.1954-10.2377,8.8655-19.9911,14.8694-28.9877
		c6.8306-10.2358,15.47-10.729,21.9594-0.4245c8.722,13.8481,16.2745,28.6902,22.3127,43.9054
		c7.573,19.0842,13.3207,38.912,19.3861,58.5638c1.8805,6.0921,4.6991,8.0121,11.2164,8.0528
		c28.1647,0.1773,56.3242,1.1077,84.5093,3.5602c-17.6772,1.6683-35.3766,3.1312-53.0278,5.0429
		c-49.5635,5.3677-98.8053,12.6317-146.5029,27.7408c-12.5562,3.9771-24.8555,8.9279-36.9305,14.2136
		c-11.2324,4.9171-20.3458,11.9346-27.2069,23.1548c-10.9413,17.892-26.8161,31.7052-43.8927,43.9607
		C838.9286,372.3884,805.8577,388.3351,771.3975,402.3103z M1025.1844,130.9173c-1.0715-0.0445-2.1424-0.089-3.2139-0.1341
		c-25.1376,35.4834-25.6581,77.3742-30.7214,119.6196c21.1192-4.9406,40.2524-9.416,60.1635-14.0737
		c-6.1945-33.3779-10.5128-66.3141-21.7205-97.7612C1028.7167,135.8293,1026.7109,133.4588,1025.1844,130.9173z"/>
	<path d="M792.1818,1475.5929c10.7855-4.9108,21.6111-9.7369,32.3508-14.7467c55.0844-25.6951,103.8813-59.6595,142.1401-107.6375
		c5.1929-6.5122,11.1478-12.5828,17.517-17.9479c7.5062-6.3235,13.9117-4.1963,17.7357,5.2488
		c5.5691,13.7561,3.7808,27.5787-0.9965,41.0061c-9.7109,27.2979-29.5971,45.7325-54.0014,59.7848
		c-34.8364,20.0585-73.1898,28.424-112.6078,32.842c-13.8557,1.5532-27.7884,2.4226-41.6855,3.6047
		C792.483,1477.0292,792.3323,1476.3112,792.1818,1475.5929z"/>
	<path d="M682.5463,619.0289c1.8443,8.0737,3.8633,16.1125,5.503,24.2282c7.3544,36.3928,26.1678,64.349,57.5546,85.1015
		c41.2241,27.2565,83.9531,51.6938,128.8074,72.1298c43.8698,19.9879,88.6554,37.9651,133.033,56.8396
		c1.7801,0.7576,3.4954,1.6682,4.7067,4.2548c-19.4542-4.5606-39.0131-8.7188-58.3427-13.7566
		c-56.0662-14.6127-109.9189-34.9686-159.251-65.6926c-26.2727-16.3622-51.2889-34.7335-77.003-52.0039
		c-13.0423-8.7595-26.5835-15.6746-43.3621-12.7181c-20.6693,3.6415-33.7166,16.1138-37.1002,36.8669
		c-0.5275,3.2368-0.7156,6.5281-1.2895,11.9594c-6.0724-16.2263-5.9402-30.0293,3.1046-42.6757
		c4.3858-6.1322,9.9282-11.5723,15.5507-16.6578c12.0426-10.8917,17.3664-24.5307,18.6966-40.384
		c1.0378-12.3724,2.7823-24.6946,4.5294-36.994c0.5091-3.5812,2.1074-7.0073,3.2062-10.5046
		C681.4418,619.0244,681.994,619.0263,682.5463,619.0289z"/>
	<path d="M747.2036,517.6032c5.5444-2.7855,11.2488-5.4026,16.7004-8.4691c4.267-2.3997,4.8796-6.0896,2.5682-10.4201
		c-7.8761-14.7532-18.8186-26.6248-33.9963-33.7668c-14.6495-6.8936-28.7023-1.2838-42.8186,3.3155
		c-6.2778,2.0457-13.1592,3.2056-19.744,3.1166c-9.8519-0.1335-20.3063,5.6371-20.6317,15.3239
		c-0.4468,13.3162,1.6441,26.7195,2.7378,40.0776c0.0433,0.5269,1.0156,0.9775,2.0217,1.8843
		c0.5332-4.8027,1.0175-9.1707,1.5024-13.5386c0.9183-0.0095,1.8373-0.019,2.7556-0.0286c6.5212,7.8831,3.191,17.308,3.9448,27.3918
		c-7.9187-3.4299-13.4783-7.7534-14.5822-14.8084c-2.1538-13.7636-3.4197-27.6873-4.4525-41.5889
		c-0.2358-3.1776,1.0493-7.3982,3.1898-9.6765c18.7436-19.9511,42.6934-31.8749,67.3563-42.6324
		c-12.5605,8.7709-25.1212,17.5418-37.6817,26.3127c0.2714,0.8147,0.5421,1.6295,0.8135,2.4436
		c4.2663-0.6126,8.6502-0.795,12.7761-1.9218c10.2777-2.8065,20.5224-5.7909,30.6209-9.1795
		c9.4726-3.1789,17.3359-1.0181,24.4984,5.5602c10.4429,9.5914,21.0239,19.0327,31.939,28.893
		c9.2457-10.2828,22.661-12.6158,36.3827-14.3133c26.689-3.3009,53.3627-6.7283,80.0472-10.0706
		c0.3712-0.0464,0.7963,0.3375,0.9946,0.4283c-20.4869,15.5583-40.8116,31.4694-61.6652,46.6553
		c-13.0131,9.4763-28.2009,12.0286-44.1736,11.3613c-5.1191-0.2142-10.5002,0.9063-15.4465,2.4354
		c-13.0919,4.0477-26.0636,8.5046-38.9686,13.1205c-4.1957,1.5011-6.8338,0.6666-8.633-3.2438
		c-2.8528-6.2014-6.0972-12.2669-8.3762-18.6736c-1.8843-5.2972-1.5342-10.7493,4.3419-13.8926
		c5.9028-3.1579,11.7115-2.2339,15.9816,2.5898C740.8267,506.3785,743.2957,511.4894,747.2036,517.6032z"/>
	<path d="M1302.9402,262.6316c-22.0795,2.9774-43.646,4.7004-64.6864,8.9984c-32.037,6.544-60.6407,20.5879-86.1852,41.6639
		c-10.6896,8.8199-24.5344,13.9269-37.2208,20.1608c-5.0951,2.5034-12.0846,3.5945-15.2196-1.9136
		c-2.1913-3.85-2.068-10.6241-0.2192-14.8993c9.7592-22.5644,25.2742-40.5943,47.1687-52.0357
		c35.9537-18.7887,74.3809-25.6162,114.4478-18.9476c12.2434,2.0375,23.8442,8.0845,35.6377,12.5631
		C1299.0724,259.1368,1301.0261,261.2506,1302.9402,262.6316z"/>
	<path d="M1681.016,475.239c-6.821-57.6131-41.5494-92.8346-92.2537-117.3679c6.1183-2.1335,10.9304-4.0731,15.8906-5.4998
		c32.5085-9.3499,64.8601-12.2536,96.6238,2.9546c16.8414,8.063,33.58,24.9533,41.4949,42.9718
		c-24.6337-17.1713-48.8384-29.6689-79.5616-19.0627c17.7153,16.0699,29.9974,33.5781,30.1005,57.2273
		C1693.3706,450.1833,1688.9302,464.6644,1681.016,475.239z"/>
	<path d="M1019.3935,309.3492c6.8122,27.9257,9.8176,53.5565-1.5437,78.7431c-10.0286,22.2307-29.592,32.7201-51.4625,39.4764
		c-8.8586,2.7366-18.293,4.4106-27.5482,4.8593c-11.599,0.5618-16.7144-8.8465-9.9784-18.3699
		c3.81-5.3867,9.3118-10.4207,15.1789-13.3702c36.8517-18.5269,59.6036-48.5956,72.9668-86.7234
		C1017.3293,313.041,1017.9032,312.2059,1019.3935,309.3492z"/>
	<path d="M1513.6766,207.9457c5.1497,27.205-10.1049,58.5981-35.4103,73.3417c-19.3798,11.2914-40.572,16.3585-62.7755,15.0054
		c-7.9314-0.483-15.8202-4.6031-23.2832-8.0324c-2.2281-1.0238-4.155-5.4325-3.9409-8.1074c0.15-1.8672,3.9536-4.3216,6.5155-4.9679
		c13.5201-3.4122,27.3054-5.8221,40.7367-9.5272c31.96-8.8173,58.4495-25.4758,75.6003-54.8638
		C1511.6779,209.8371,1512.6204,209.1043,1513.6766,207.9457z"/>
	<path d="M689.8244,1307.4724c12.5262-1.1154,25.0849-1.9503,37.5723-3.3988c35.2253-4.0858,69.0227-14.3566,102.9567-24.0521
		c6.2974-1.7992,12.8719-3.1371,19.3881-3.5254c6.7975-0.4054,9.4579,4.6642,5.1033,9.9022
		c-3.9841,4.7919-8.8434,9.3282-14.2136,12.4202c-40.0801,23.0771-82.5524,32.0896-128.0886,19.7947
		c-8.0184-2.1652-15.5761-6.0361-23.3467-9.1198C689.4056,1308.8192,689.6153,1308.1455,689.8244,1307.4724z"/>
	<path d="M1326.2209,290.5941c-32.4507,4.2765-59.2572,21.9803-87.6722,35.9168c-6.5548,3.2151-13.62,6.4595-20.7118,7.2056
		c-6.9241,0.7283-14.7391-0.3921-21.1644-3.0842c-9.8983-4.1475-10.8541-12.4907-2.2262-18.8364
		c7.6626-5.6358,16.2904-10.436,25.1663-13.8551c28.2803-10.8929,57.6206-16.3102,88.0471-13.5831
		c6.1741,0.5536,12.2238,2.4894,18.3312,3.7878C1326.0671,288.9621,1326.144,289.7781,1326.2209,290.5941z"/>
	<path d="M1128.0394,452.2538c0.2573-21.2584,20.9788-44.3363,42.0935-46.8822c18.1157-2.1837,28.1215,9.292,22.1417,26.5707
		c-6.9647,20.1227-21.465,33.0316-42.0483,38.3979C1136.9877,473.7918,1127.8735,465.9564,1128.0394,452.2538z"/>
	<path d="M633.8789,553.2531c-19.8818,34.4468-30.769,71.6494-33.866,111.092c-3.0715,39.1205,2.1169,77.4384,13.1859,115.045
		C568.6891,711.54,573.528,620.338,633.8789,553.2531z"/>
	<path d="M774.9666,1020.4996c-64.6108-24.1647-140.848-128.5113-138.6167-190.416
		C665.192,907.0923,715.2067,966.4106,774.9666,1020.4996z"/>
	<path d="M1094.7709,266.2064c-20.2467,13.5259-25.0284,34.2028-26.7849,56.3516c-0.3611,4.551-0.6985,9.1745-1.8214,13.5666
		c-0.6184,2.4175-2.5732,5.9002-4.4233,6.2473c-2.429,0.4557-6.1677-0.959-7.9148-2.8726
		c-7.0366-7.709-8.1831-17.3181-6.5332-27.1542C1051.4482,287.5703,1068.8191,270.5102,1094.7709,266.2064z"/>
	<path d="M1403.9172,221.4532c2.6222,14.6819-2.8351,25.8685-14.0039,34.1316c-11.3899,8.4265-24.075,11.8875-38.0636,6.8974
		c-1.4097-0.5027-2.9272-1.2062-3.9225-2.2618c-1.822-1.9326-3.2914-4.1983-4.9081-6.3248c2.181-1.5113,4.1709-3.5539,6.5828-4.4201
		c4.7639-1.7115,9.74-2.8593,14.6666-4.0858C1379.8562,241.5086,1394.0825,235.4139,1403.9172,221.4532z"/>
	<path d="M664.613,568.671c2.9189,3.3143,5.8023,6.6603,8.7645,9.9352c4.3038,4.7576,8.9139,5.4382,13.7757,0.8058
		c6.5917-6.2809,13.2513-12.4957,19.6677-18.9514c1.5151-1.5246,2.1741-3.899,4.6375-4.666
		c-5.3721,15.4306-11.9537,29.7852-22.7919,41.6473c-3.8398,4.2028-8.6082,4.082-11.5494-0.6863
		c-5.3391-8.6547-9.8729-17.8055-14.743-26.75C663.1202,569.5607,663.8663,569.1158,664.613,568.671z"/>
</g>
</svg>
